<svg version="1" xmlns="http://www.w3.org/2000/svg" width="480" height="480" viewBox="0 0 360.000000 360.000000"><path d="M169 130.2c0 .4-1 .8-2.2.8-3.7 0-12.3 4.5-16.6 8.7-3.7 3.6-8 10.3-6.6 10.3.4 0 .1.7-.6 1.5-1.3 1.6-1.7 12-.6 16.8 1.8 7.8 9 15.8 18 20 5.1 2.4 18.6 6.7 26.1 8.2 10.7 2.2 16 6.2 15.8 12.1-.2 7.7-7.4 12.7-18.3 12.6-3.6-.1-7.2-.3-8-.5-6.5-1.7-11.3-6.7-13.6-14l-1.7-5.6-5.1.4c-9.6.8-17.1 1.7-17.8 2.1-1.8 1.2 2.6 15.7 6.8 21.9 5.5 8.4 13.3 13.3 25.9 16.1 4.3 1 18.4 1 25 .1 13.2-1.9 22.8-8.5 28.1-19.2 2.6-5.4 2.9-7 2.8-15.5 0-10-.9-12.8-6.1-19.8-3.5-4.7-11.5-9.5-20.3-12.1-4.1-1.3-8.2-2.5-9-2.9-2.2-.8-4.2-1.3-6.5-1.6-1.1-.2-2.7-.6-3.5-.9-.8-.3-3.3-1.1-5.5-1.8-17.5-5.3-12.4-18.3 7-18 5.2.1 6.3.4 10.3 2.4 1.7 1 3.2 2.4 3.2 3.2 0 .8.4 1.5 1 1.5.5 0 1.3 1.8 1.6 4.1l.7 4 11.6-.2c12.7-.2 14.4-.5 13.4-2.2-.4-.6-.9-2.9-1.1-5.1-.5-5.6-4.8-13.9-9.4-18.1-4.6-4.3-12.6-8.5-16.2-8.5-1.4 0-2.6-.4-2.6-.8 0-.5-5.8-.8-13-.8-7.1 0-13 .4-13 .8zM11.7 131.2c-.6.4-1.4.5-1.7.3-.5-.3-.6 106.7-.1 108.6 0 .3 5.3.5 11.6.5 11.2 0 11.6 0 12.1-2.3.4-1.3.4-2.9.1-3.6-.3-.8-.2-1.9.3-2.6.4-.7.4-2.8 0-4.6-.4-1.8-.4-3.9.1-4.6.4-.8.3-1.6-.3-2-.7-.4-.6-1.4.2-2.9.9-1.7.9-2.4.1-3-.8-.5-.9-1.4-.2-3.3.7-1.8.7-2.7-.1-2.9-.8-.3-.7-1.1.2-2.7.9-1.8.9-2.5.1-3.1-.8-.5-.9-1.4-.2-3.3.7-1.8.7-2.7-.1-2.9-.8-.3-.8-.9-.1-2.3.7-1.2.8-2.8.2-4.2-.5-1.4-.4-2.5.2-2.9.6-.4.6-1.1-.2-2-.9-1.1-.9-1.4 0-1.4.7 0 .9-.5.5-1.1-.8-1.4-.9-10.7 0-11.6.3-.3.1-1.2-.5-2-.9-1-.8-1.3 0-1.3.7 0 .9-.5.5-1.2-.8-1.3-.9-10.2-.1-11.5.3-.5.2-1.5-.3-2.3-.5-.8-.4-2.2.2-3.3.7-1.4.7-2.2-.1-2.7-.8-.5-.9-1.4-.2-3.3.7-1.8.7-2.7-.1-2.9-.7-.3-.8-1-.1-2.3.6-1.2.7-3.2.2-5l-.8-3H22.9c-5.5 0-10.6.3-11.2.7zM48.8 130.8c-3.6.2-4.7.7-4.7 2-.2 7.7.1 17.7.5 18.3.3.5 1.8.7 3.5.5 1.6-.2 3.2.1 3.5.5.3.5 1 .7 1.5.4.8-.5 14.5-.9 20.5-.6 2.1.1 2.1.2 2 42.8-.1 23.6.2 43.5.6 44.4.6 1.4 2.6 1.6 11.8 1.6 6.7 0 11.3-.4 11.7-1.1 1-1.6 1.1-4.6.1-5.2-.4-.3-.4-1.3 0-2.2.8-1.5.8-6.5.2-9.7-.1-.6-.1-1.2 0-1.5.6-1.5.4-10.2-.2-10.6-.5-.3-.4-1.3 0-2.2 1-2.1.8-48.4-.2-50-.4-.7-.2-1.2.4-1.2.7 0 .9-.8.5-1.9-.3-1.1-.2-2.2.4-2.5.8-.6 12.5-1 14.6-.6.6.1 2.4.1 4 0 1.7-.2 5-.3 7.5-.4l4.5-.1.1-10.3.1-10.2-2.6-.1c-13.2-.2-76.7-.3-80.3-.1zM245.4 131l-2.9.5v8.5c0 4.7-.4 9.1-.8 9.7-.5.7-.4 1.3 0 1.3.8 0 1 12.9.3 15.5-.1.5-.1 1.2 0 1.5.7 1.6.5 12.7-.3 13.7-.5.8-.6 1.3 0 1.3.7 0 1 12.8.3 15.5-.1.5-.1 1.2 0 1.5.7 1.6.5 12.7-.3 13.7-.5.8-.6 1.3 0 1.3 1 0 1 14 0 15.7-.4.6-.3 1.4.2 1.7.4.3.7 2.3.6 4.4l-.2 3.9 11.1-.2c6.1-.1 11.3-.3 11.6-.3.3-.1.5-16.2.5-35.7-.1-19.5 0-35.5.2-35.5s2 6.4 2.9 10.2c.2 1 .6 2.7.9 3.8.3 1.1.7 2.9 1 4 .3 1.1.7 2.8.9 3.9.2 1 .9 3.5 1.4 5.5.6 2 .8 3.6.5 3.6-.3 0 0 .7.7 1.5s1 1.5.7 1.5c-.3 0 0 2.1.8 4.7.8 2.7 1.6 5.9 1.9 7.3.3 1.4 1 4.3 1.6 6.5.6 2.2 1.3 5.1 1.6 6.5.9 3.7 1 4.4 1.7 6 .3.8.7 2.6.9 4 .3 2.5.3 2.5 11.6 2.6 12.4.1 12.5 0 13.7-6.6.3-1.8.8-3.6 1-4 .2-.4.7-2.2 1-4 .3-1.9 1-3.9 1.5-4.6.6-.6.7-1.3.4-1.7-.3-.3 0-2.3.7-4.4.7-2.1 1.2-4.1 1.1-4.5-.1-.3.6-3 1.4-5.9.9-2.9 1.8-6.1 2-7.1.2-1 .6-2.7.9-3.8.3-1.1.7-2.9 1-4 .3-1.1.7-2.8.9-3.8.2-.9 1.2-4.6 2.1-8.2 1-3.6 1.7-7.4 1.7-8.5-.1-1.1.2-1.5.6-.8.4.6.7 16.9.7 36.2-.1 19.3.2 35.2.5 35.3.3 0 5.1.2 10.8.3 8.6.2 10.4-.1 11-1.4.9-1.8.8-106.8 0-107.7-1.1-1-33.8-.9-34.2.1-.2.5-.4 1.3-.5 1.7-.1.4-.8 2.6-1.6 4.8-.8 2.2-1.2 4-.8 4 .3 0 0 .6-.6 1.3-.6.8-.8 1.7-.4 2 .3.4 0 1.3-.7 2.2-.7.8-1 2.2-.6 3 .3.8.2 1.5-.2 1.5s-.9 1.2-1 2.6c-.1 1.4-.5 3.1-.9 3.7-.4.7-.9 2.1-1.1 3.2-.7 3.7-.8 4-1.5 5.2-.5.7-.6 1.3-.3 1.3.2 0 0 1.5-.5 3.2-.6 1.8-1.2 4.2-1.5 5.3-.2 1.1-1.7 6.7-3.2 12.4l-2.9 10.4-1.2-4.4c-.7-2.4-1.4-5.3-1.6-6.4-.2-1.1-.4-2-.5-2-.1 0-.3-.7-.5-1.5-.1-.8-1.5-6-3-11.5-1.4-5.5-2.8-10.7-3-11.6-.5-2.6-2.7-10.3-3.3-11.9-.3-.8-.6-2.3-.7-3.3-.2-.9-.3-1.8-.5-2-.2-.3-.7-2-2.1-8-.6-2.7-1.7-5.1-2.4-5.3-1.8-.7-27.5-1-31.1-.4z"/></svg>